<?xml version="1.0" encoding="UTF-8" standalone="no"?>
<svg xmlns="http://www.w3.org/2000/svg" width="256" height="256" viewBox="0 0 256 256">
  <!-- No background rect for transparency -->
  
  <!-- Chart border - just a subtle outline -->
  <rect x="20" y="30" width="216" height="180" fill="none" stroke="rgba(255,255,255,0.5)" stroke-width="0.5"/>
  
  <!-- Chart Line - trend line -->
  <polyline 
    points="20,150 38,160 56,148 74,138 92,165 110,148 128,130 146,120 164,140 182,125 200,110 218,125 236,115" 
    fill="none" 
    stroke="#3273dc" 
    stroke-width="2" 
    stroke-linejoin="round"
    stroke-linecap="round"/>
  
  <!-- More Candlesticks - 9 candles total -->
  <!-- Candle 1 - bearish -->
  <line x1="30" y1="140" x2="30" y2="170" stroke="#ff6b6b" stroke-width="2"/>
  <rect x="24" y="145" width="12" height="20" fill="#ff6b6b"/>
  
  <!-- Candle 2 - bullish -->
  <line x1="48" y1="150" x2="48" y2="180" stroke="#2ecc71" stroke-width="2"/>
  <rect x="42" y="150" width="12" height="25" fill="#2ecc71"/>
  
  <!-- Candle 3 - bearish -->
  <line x1="66" y1="135" x2="66" y2="165" stroke="#ff6b6b" stroke-width="2"/>
  <rect x="60" y="145" width="12" height="15" fill="#ff6b6b"/>
  
  <!-- Candle 4 - bearish -->
  <line x1="84" y1="130" x2="84" y2="175" stroke="#ff6b6b" stroke-width="2"/>
  <rect x="78" y="130" width="12" height="30" fill="#ff6b6b"/>
  
  <!-- Candle 5 - bullish -->
  <line x1="102" y1="140" x2="102" y2="170" stroke="#2ecc71" stroke-width="2"/>
  <rect x="96" y="155" width="12" height="15" fill="#2ecc71"/>
  
  <!-- Candle 6 - bullish -->
  <line x1="120" y1="120" x2="120" y2="150" stroke="#2ecc71" stroke-width="2"/>
  <rect x="114" y="130" width="12" height="20" fill="#2ecc71"/>
  
  <!-- Candle 7 - bearish -->
  <line x1="138" y1="110" x2="138" y2="140" stroke="#ff6b6b" stroke-width="2"/>
  <rect x="132" y="110" width="12" height="25" fill="#ff6b6b"/>
  
  <!-- Candle 8 - bullish -->
  <line x1="156" y1="130" x2="156" y2="160" stroke="#2ecc71" stroke-width="2"/>
  <rect x="150" y="145" width="12" height="15" fill="#2ecc71"/>
  
  <!-- Candle 9 - bearish -->
  <line x1="174" y1="125" x2="174" y2="155" stroke="#ff6b6b" stroke-width="2"/>
  <rect x="168" y="125" width="12" height="20" fill="#ff6b6b"/>
  
  <!-- Candle 10 - bullish -->
  <line x1="192" y1="105" x2="192" y2="135" stroke="#2ecc71" stroke-width="2"/>
  <rect x="186" y="115" width="12" height="20" fill="#2ecc71"/>
  
  <!-- Candle 11 - bearish -->
  <line x1="210" y1="115" x2="210" y2="145" stroke="#ff6b6b" stroke-width="2"/>
  <rect x="204" y="125" width="12" height="15" fill="#ff6b6b"/>
  
  <!-- Candle 12 - bullish -->
  <line x1="228" y1="105" x2="228" y2="135" stroke="#2ecc71" stroke-width="2"/>
  <rect x="222" y="115" width="12" height="15" fill="#2ecc71"/>
  
  <!-- Checkbox -->
  <g transform="translate(128, 120) scale(1.2)">
    <!-- Checkbox background -->
    <rect x="-30" y="-30" width="60" height="60" rx="6" ry="6" fill="white" stroke="#2db84b" stroke-width="5"/>
    
    <!-- Checkbox checkmark -->
    <path d="M-15,0 L-5,20 L25,-15" fill="none" stroke="#2db84b" stroke-width="8" stroke-linecap="round" stroke-linejoin="round"/>
  </g>
</svg>